<svg width="16" height="16" viewBox="0 0 16 16" fill="none" xmlns="http://www.w3.org/2000/svg">
<path fill-rule="evenodd" clip-rule="evenodd" d="M9.33337 1.33341V8.00008C9.33337 8.36675 9.03337 8.66675 8.66671 8.66675H2.00004C1.63337 8.66675 1.33337 8.36675 1.33337 8.00008V1.33341C1.33337 0.966748 1.63337 0.666748 2.00004 0.666748H8.66671C9.03337 0.666748 9.33337 0.966748 9.33337 1.33341ZM8.00004 3.62008C8.00004 3.62008 8.02004 3.55341 8.03337 3.51341C8.04671 3.47342 8.04671 3.43342 8.04671 3.39342V3.39341C8.04671 3.31341 8.02671 3.25341 7.98671 3.21341V3.20008C7.94671 3.16008 7.90004 3.14675 7.83337 3.14675H2.68004C2.68004 3.14675 2.66004 3.21341 2.64671 3.25341C2.63337 3.29341 2.63337 3.33341 2.63337 3.37341C2.63337 3.45341 2.65337 3.51341 2.68671 3.55341C2.72671 3.59341 2.77337 3.60675 2.84004 3.60675H4.98671C4.83337 3.62008 4.70004 3.65341 4.59337 3.72008C4.46671 3.79341 4.36671 3.89341 4.30671 4.00675C4.24004 4.12675 4.21337 4.25341 4.21337 4.38675C4.21337 4.56675 4.25337 4.69341 4.33337 4.77341C4.41337 4.84675 4.50004 4.88675 4.58671 4.88675C4.64671 4.88675 4.70004 4.87341 4.75337 4.84675C4.80671 4.82008 4.84004 4.78675 4.86004 4.74675C4.84004 4.70675 4.82671 4.66675 4.81337 4.62008C4.80004 4.57341 4.79337 4.52675 4.79337 4.46675C4.79337 4.34008 4.82671 4.24008 4.90004 4.16008C4.97337 4.08008 5.06004 4.04008 5.16671 4.04008C5.28671 4.04008 5.38671 4.09342 5.46671 4.20008C5.54671 4.30675 5.58671 4.44675 5.58671 4.63341C5.58671 4.90675 5.50004 5.12008 5.33337 5.28008C5.16671 5.44008 4.95337 5.51341 4.70671 5.51341C4.53337 5.51341 4.37337 5.48008 4.24004 5.41341C4.10671 5.34675 3.98004 5.25342 3.88004 5.14008C3.78004 5.02008 3.70004 4.88675 3.64004 4.73341C3.58004 4.58008 3.54004 4.42008 3.52004 4.24008L3.50004 4.08675C3.50004 4.08675 3.45337 4.06675 3.42004 4.06008C3.38004 4.05341 3.34004 4.04675 3.28671 4.04675C3.19337 4.04675 3.12004 4.07341 3.06004 4.13341C3.00004 4.19341 2.97337 4.27341 2.97337 4.38008C2.97337 4.44675 2.98004 4.52008 2.99337 4.59341C3.00671 4.66675 3.02671 4.74008 3.05337 4.80675C3.13337 5.04675 3.25337 5.26008 3.41337 5.43341C3.57337 5.60675 3.76004 5.74675 3.98004 5.84675C4.20004 5.94675 4.44671 5.99341 4.71337 5.99341C5.01337 5.99341 5.27337 5.93341 5.49337 5.82008C5.53751 5.79556 5.57805 5.76382 5.61762 5.73283C5.63184 5.72169 5.64594 5.71066 5.66004 5.70008L5.66005 5.70009C5.76672 5.76009 5.87338 5.82009 5.98671 5.90008C6.14671 6.00008 6.30671 6.11341 6.46671 6.22675C6.62671 6.34008 6.78004 6.45341 6.92004 6.57341C6.93337 6.57341 6.96004 6.58008 6.96004 6.58008H7.00004C7.07337 6.58008 7.14004 6.57341 7.19337 6.55341C7.24671 6.53341 7.32671 6.48675 7.32671 6.48675V3.62008H8.00004ZM6.75339 5.32668H6.73339V3.60002H5.34672C5.47339 3.62002 5.59339 3.66002 5.71339 3.73335C5.84005 3.81335 5.94672 3.93335 6.03339 4.08002C6.12005 4.22668 6.16005 4.41335 6.16005 4.64002C6.16005 4.88668 6.10672 5.10668 5.99339 5.30668C6.01005 5.31668 6.02339 5.32502 6.03672 5.33335C6.05005 5.34168 6.06339 5.35002 6.08005 5.36002C6.16005 5.41335 6.24671 5.47334 6.33337 5.53334L6.33339 5.53335C6.38788 5.56838 6.43782 5.60341 6.48587 5.63711L6.4859 5.63713C6.52015 5.66115 6.55343 5.68449 6.58672 5.70668C6.64784 5.74743 6.70117 5.78817 6.74672 5.82297L6.78672 5.85335C6.78005 5.78668 6.77339 5.70668 6.76672 5.61335L6.76547 5.59462L6.76547 5.59461C6.75924 5.50164 6.75339 5.41416 6.75339 5.32668ZM14.0468 5.93335H10.7934C10.4268 5.93335 10.1268 6.23335 10.1268 6.60002C10.1268 6.96668 10.4268 7.26668 10.7934 7.26668H13.3801V13.9333H6.71342V10.16C6.71342 9.79335 6.41342 9.49335 6.04675 9.49335C5.68009 9.49335 5.38009 9.79335 5.38009 10.16V14.6C5.38009 14.9667 5.68009 15.2667 6.04675 15.2667H14.0468C14.4134 15.2667 14.7134 14.9667 14.7134 14.6V6.60002C14.7134 6.23335 14.4134 5.93335 14.0468 5.93335ZM11.9001 13.2867H11.8934V13.2934L11.9001 13.2867ZM8.84667 13.24C8.80001 13.2734 8.75334 13.2934 8.69334 13.2934H8.13334L9.64668 9.44002H10.38L11.8933 13.2867H11.3467C11.2867 13.2867 11.2333 13.2734 11.1933 13.24C11.1533 13.2067 11.1267 13.1734 11.1067 13.1267L10.82 12.34H9.22001L8.93334 13.1267C8.92001 13.1667 8.89334 13.2067 8.84667 13.24ZM9.9309 10.4012C9.91147 10.4606 9.8945 10.5124 9.87334 10.56L9.40667 11.8334H10.6333L10.1667 10.5534C10.1467 10.5 10.12 10.4267 10.0933 10.3534C10.0667 10.28 10.04 10.1934 10.02 10.1C10.0118 10.1289 10.0041 10.1565 9.99678 10.1832L9.99677 10.1832L9.99676 10.1833L9.99675 10.1833L9.99673 10.1834C9.9803 10.243 9.96507 10.2982 9.94668 10.3534L9.9309 10.4012Z" fill="#4D4D4D"/>
</svg>
