<svg width="16" height="16" viewBox="0 0 16 16" fill="none" xmlns="http://www.w3.org/2000/svg">
<path fill-rule="evenodd" clip-rule="evenodd" d="M5.25337 8.66675H2.66671V2.00008H9.33337V5.77341C9.33337 6.14008 9.63338 6.44008 10 6.44008C10.3667 6.44008 10.6667 6.14008 10.6667 5.77341V1.33341C10.6667 0.966748 10.3667 0.666748 10 0.666748H2.00004C1.63337 0.666748 1.33337 0.966748 1.33337 1.33341V9.33341C1.33337 9.70008 1.63337 10.0001 2.00004 10.0001H5.25337C5.62004 10.0001 5.92004 9.70008 5.92004 9.33341C5.92004 8.96675 5.62004 8.66675 5.25337 8.66675ZM7.10665 7.35343H13.7733C14.14 7.35343 14.44 7.65343 14.44 8.0201V14.6868C14.44 15.0534 14.14 15.3534 13.7733 15.3534H7.10665C6.73998 15.3534 6.43998 15.0534 6.43998 14.6868V8.0201C6.43998 7.65343 6.73998 7.35343 7.10665 7.35343ZM11.7666 13.2401H12.3133L10.8 9.39343H10.0666L8.55332 13.2468H9.11332C9.17332 13.2468 9.21998 13.2268 9.26665 13.1934C9.31331 13.1601 9.33998 13.1201 9.35332 13.0801L9.63998 12.2934H11.24L11.5266 13.0801C11.5466 13.1268 11.5733 13.1601 11.6133 13.1934C11.6533 13.2268 11.7066 13.2401 11.7666 13.2401ZM10.44 10.0468C10.46 10.1401 10.4867 10.2268 10.5134 10.3001L10.5136 10.3008C10.5402 10.3739 10.5668 10.447 10.5867 10.5001L11.0534 11.7801H9.8267L10.2934 10.5068C10.3145 10.4592 10.3315 10.4074 10.3509 10.348L10.3667 10.3001C10.3851 10.2449 10.4003 10.1897 10.4168 10.1301C10.4242 10.1033 10.4318 10.0757 10.44 10.0468ZM7.58 6.52001C7.44 6.40001 7.28667 6.28668 7.12667 6.17334C6.96667 6.06001 6.80667 5.94668 6.64667 5.84668C6.53333 5.76668 6.42667 5.70668 6.32 5.64668C6.3059 5.65725 6.2918 5.66829 6.27758 5.67943C6.23801 5.71042 6.19747 5.74215 6.15333 5.76668C5.93333 5.88001 5.67333 5.94001 5.37333 5.94001C5.10667 5.94001 4.86 5.89334 4.64 5.79334C4.42 5.69334 4.23333 5.55334 4.07333 5.38001C3.91333 5.20668 3.79333 4.99334 3.71333 4.75334C3.68667 4.68668 3.66667 4.61334 3.65333 4.54001C3.64 4.46668 3.63333 4.39334 3.63333 4.32668C3.63333 4.22001 3.66 4.14001 3.72 4.08001C3.78 4.02001 3.85333 3.99334 3.94667 3.99334C4 3.99334 4.04 4.00001 4.08 4.00668L4.08 4.00668C4.11333 4.01334 4.16 4.03334 4.16 4.03334L4.18 4.18668C4.2 4.36668 4.24 4.52668 4.3 4.68001C4.36 4.83334 4.44 4.96668 4.54 5.08668C4.64 5.20001 4.76667 5.29334 4.9 5.36001C5.03333 5.42668 5.19333 5.46001 5.36667 5.46001C5.61333 5.46001 5.82667 5.38668 5.99333 5.22668C6.16 5.06668 6.24667 4.85334 6.24667 4.58001C6.24667 4.39334 6.20667 4.25334 6.12667 4.14668C6.04667 4.04001 5.94667 3.98668 5.82667 3.98668C5.72 3.98668 5.63333 4.02668 5.56 4.10668C5.48667 4.18668 5.45333 4.28668 5.45333 4.41334C5.45333 4.47334 5.46 4.52001 5.47333 4.56668C5.48667 4.61334 5.5 4.65334 5.52 4.69334C5.5 4.73334 5.46667 4.76668 5.41333 4.79334C5.36 4.82001 5.30667 4.83334 5.24667 4.83334C5.16 4.83334 5.07333 4.79334 4.99333 4.72001C4.91333 4.64001 4.87333 4.51334 4.87333 4.33334C4.87333 4.20001 4.9 4.07334 4.96667 3.95334C5.02667 3.84001 5.12667 3.74001 5.25333 3.66668C5.36 3.60001 5.49333 3.56668 5.64667 3.55334H3.5C3.43333 3.55334 3.38667 3.54001 3.34667 3.50001C3.31333 3.46001 3.29333 3.40001 3.29333 3.32001C3.29333 3.28001 3.29333 3.24001 3.30667 3.20001C3.32 3.16001 3.34 3.09334 3.34 3.09334H8.5C8.56667 3.09334 8.61333 3.10668 8.65333 3.14668V3.16001C8.68667 3.20001 8.70667 3.26001 8.70667 3.34001C8.70667 3.38001 8.70667 3.42001 8.69334 3.46001C8.68 3.50001 8.66 3.56668 8.66 3.56668H7.98667V6.43334C7.95333 6.46001 7.90667 6.48001 7.85333 6.50001C7.8 6.52001 7.73333 6.52668 7.66 6.52668H7.62C7.6 6.52001 7.59333 6.52001 7.58 6.52001ZM6.01333 3.54668C6.14 3.56668 6.26 3.60668 6.38 3.68001C6.50667 3.76001 6.61334 3.88001 6.7 4.02668C6.78667 4.17334 6.82667 4.36001 6.82667 4.58668C6.82667 4.83334 6.77333 5.05334 6.66 5.25334C6.67667 5.26334 6.69 5.27168 6.70333 5.28001C6.71667 5.28834 6.73 5.29668 6.74667 5.30668C6.82667 5.36001 6.91333 5.42001 7 5.48001C7.05449 5.51504 7.10443 5.55007 7.15249 5.58377C7.18674 5.60779 7.22004 5.63115 7.25333 5.65334C7.31445 5.69409 7.36778 5.73483 7.41333 5.76963C7.42741 5.78038 7.44074 5.79057 7.45333 5.80001C7.44667 5.73334 7.44 5.65334 7.43333 5.56001L7.43208 5.54126C7.42586 5.4483 7.42 5.36082 7.42 5.27334H7.4V3.54668H6.01333Z" fill="#4D4D4D"/>
</svg>
