<?xml version="1.0" ?><!-- Uploaded to: SVG Repo, www.svgrepo.com, Generator: SVG Repo Mixer Tools -->
<svg width="800px" height="800px" viewBox="0 0 28 28" fill="none" xmlns="http://www.w3.org/2000/svg"><path clip-rule="evenodd" d="M21.6185 10.2153C22.6769 9.15692 22.6769 7.44086 21.6185 6.38243C20.5601 5.32399 18.844 5.32399 17.7856 6.38243C16.7271 7.44086 16.7271 9.15692 17.7856 10.2153C18.844 11.2738 20.5601 11.2738 21.6185 10.2153ZM20.4897 7.51122C20.9247 7.94623 20.9247 8.65154 20.4897 9.08656C20.0547 9.52158 19.3494 9.52158 18.9144 9.08656C18.4793 8.65154 18.4793 7.94623 18.9144 7.51122C19.3494 7.0762 20.0547 7.0762 20.4897 7.51122Z" fill="#000000" fill-rule="evenodd"/><path clip-rule="evenodd" d="M1.58445 13.9772C0.805182 14.7564 0.805185 16.0199 1.58445 16.7991L11.2009 26.4155C11.9801 27.1948 13.2436 27.1948 14.0228 26.4155L26.4156 14.0228C26.7898 13.6486 27 13.1411 27 12.6119V2.99543C27 1.89339 26.1066 1 25.0046 1H15.3881C14.8589 1 14.3514 1.21023 13.9772 1.58445L1.58445 13.9772ZM13.319 24.2975C12.9284 24.688 12.2953 24.688 11.9047 24.2975L3.70254 16.0952C3.31202 15.7047 3.31202 15.0716 3.70254 14.681L15.0952 3.28833C15.2828 3.10079 15.5371 2.99543 15.8024 2.99543H24.0046C24.5568 2.99543 25.0046 3.44315 25.0046 3.99543V12.1976C25.0046 12.4629 24.8992 12.7172 24.7117 12.9047L13.319 24.2975Z" fill="#000000" fill-rule="evenodd"/></svg>